<svg width="32" height="32" viewBox="0 0 32 32" fill="none" xmlns="http://www.w3.org/2000/svg">
<rect width="32" height="32" rx="8" fill="white"/>
<path d="M16.3749 26.5C13.4907 26.5 10.7246 25.3543 8.6852 23.3148C6.64575 21.2754 5.5 18.5093 5.5 15.6251C5.5 11.2188 8.03124 7.26823 11.9504 5.56246C12.0886 5.50226 12.2416 5.48506 12.3897 5.5131C12.5377 5.54114 12.6739 5.61313 12.7804 5.71967C12.8869 5.82621 12.9589 5.96238 12.987 6.11042C13.015 6.25846 12.9978 6.41152 12.9376 6.54964C12.4876 7.58276 12.25 8.90604 12.25 10.3751C12.25 15.5444 16.4556 19.75 21.6249 19.75C23.094 19.75 24.4172 19.5124 25.4504 19.0624C25.5885 19.0022 25.7415 18.985 25.8896 19.013C26.0376 19.0411 26.1738 19.1131 26.2803 19.2196C26.3869 19.3261 26.4589 19.4623 26.4869 19.6103C26.5149 19.7584 26.4977 19.9114 26.4375 20.0496C24.7318 23.9688 20.7812 26.5 16.3749 26.5Z" fill="url(#paint0_linear_238_7)"/>
<defs>
<linearGradient id="paint0_linear_238_7" x1="5.5" y1="5.5" x2="26.5" y2="26.5" gradientUnits="userSpaceOnUse">
<stop stop-color="#6B5FF6"/>
<stop offset="1" stop-color="#3F3890"/>
</linearGradient>
</defs>
</svg>
